<svg width="255" height="78" viewBox="0 0 255 78" fill="none" xmlns="http://www.w3.org/2000/svg">
<circle cx="215.927" cy="39" r="39" fill="#526ED3"/>
<path d="M8.94907 33.8279H25.3862V37.7089H8.94907V33.8279ZM9.36 48.0277H27.9887V52H4.79415V20.039H27.3495V24.0113H9.36V48.0277ZM65.0142 27.5727C66.9623 27.5727 68.6821 27.9532 70.1736 28.7141C71.6651 29.4751 72.8218 30.6318 73.6437 32.1842C74.496 33.7366 74.9221 35.6999 74.9221 38.0741V52H70.5389V38.5764C70.5389 36.2326 69.991 34.4671 68.8952 33.28C67.7994 32.0929 66.2622 31.4993 64.2837 31.4993C62.8226 31.4993 61.5441 31.8037 60.4483 32.4125C59.3525 33.0213 58.5002 33.9192 57.8915 35.1063C57.3131 36.2935 57.024 37.7698 57.024 39.5352V52H52.6407V38.5764C52.6407 36.2326 52.0928 34.4671 50.997 33.28C49.9317 32.0929 48.3945 31.4993 46.3855 31.4993C44.9549 31.4993 43.6917 31.8037 42.5959 32.4125C41.5 33.0213 40.6478 33.9192 40.039 35.1063C39.4302 36.2935 39.1258 37.7698 39.1258 39.5352V52H34.7426V27.801H38.9432V34.2388L38.2583 32.5951C39.0193 31.0123 40.1912 29.7795 41.774 28.8968C43.3568 28.014 45.1984 27.5727 47.2987 27.5727C49.612 27.5727 51.6058 28.151 53.2799 29.3077C54.9541 30.4339 56.0499 32.1538 56.5674 34.4671L54.7867 33.7366C55.5172 31.8798 56.7957 30.3883 58.622 29.262C60.4483 28.1358 62.5791 27.5727 65.0142 27.5727ZM95.8173 52.274C93.8083 52.274 91.9668 51.8174 90.2926 50.9042C88.6489 49.9606 87.3248 48.5756 86.3203 46.7493C85.3463 44.9229 84.8592 42.64 84.8592 39.9005C84.8592 37.161 85.3311 34.878 86.2747 33.0517C87.2487 31.2254 88.5576 29.8556 90.2013 28.9424C91.8754 28.0293 93.7474 27.5727 95.8173 27.5727C98.1915 27.5727 100.292 28.0901 102.118 29.1251C103.945 30.16 105.39 31.6059 106.456 33.4626C107.521 35.289 108.054 37.4349 108.054 39.9005C108.054 42.366 107.521 44.5272 106.456 46.384C105.39 48.2408 103.945 49.6866 102.118 50.7216C100.292 51.7565 98.1915 52.274 95.8173 52.274ZM82.9872 60.8578V27.801H87.1878V34.3301L86.9139 39.9461L87.3705 45.5621V60.8578H82.9872ZM95.452 48.4386C97.0044 48.4386 98.3894 48.0886 99.607 47.3885C100.855 46.6884 101.829 45.6991 102.529 44.4207C103.26 43.1118 103.625 41.6051 103.625 39.9005C103.625 38.1655 103.26 36.6739 102.529 35.426C101.829 34.1475 100.855 33.1582 99.607 32.4581C98.3894 31.758 97.0044 31.408 95.452 31.408C93.9301 31.408 92.5451 31.758 91.2971 32.4581C90.0795 33.1582 89.1055 34.1475 88.375 35.426C87.6749 36.6739 87.3248 38.1655 87.3248 39.9005C87.3248 41.6051 87.6749 43.1118 88.375 44.4207C89.1055 45.6991 90.0795 46.6884 91.2971 47.3885C92.5451 48.0886 93.9301 48.4386 95.452 48.4386ZM114.11 52V18.1214H118.493V52H114.11ZM137.227 52.274C134.792 52.274 132.63 51.7413 130.743 50.6759C128.856 49.6105 127.364 48.1495 126.269 46.2927C125.173 44.4055 124.625 42.2747 124.625 39.9005C124.625 37.4958 125.173 35.3651 126.269 33.5083C127.364 31.6515 128.856 30.2057 130.743 29.1707C132.63 28.1054 134.792 27.5727 137.227 27.5727C139.631 27.5727 141.777 28.1054 143.665 29.1707C145.582 30.2057 147.074 31.6515 148.139 33.5083C149.235 35.3346 149.783 37.4654 149.783 39.9005C149.783 42.3052 149.235 44.4359 148.139 46.2927C147.074 48.1495 145.582 49.6105 143.665 50.6759C141.777 51.7413 139.631 52.274 137.227 52.274ZM137.227 48.4386C138.779 48.4386 140.164 48.0886 141.382 47.3885C142.63 46.6884 143.604 45.6991 144.304 44.4207C145.004 43.1118 145.354 41.6051 145.354 39.9005C145.354 38.1655 145.004 36.6739 144.304 35.426C143.604 34.1475 142.63 33.1582 141.382 32.4581C140.164 31.758 138.779 31.408 137.227 31.408C135.674 31.408 134.289 31.758 133.072 32.4581C131.854 33.1582 130.88 34.1475 130.15 35.426C129.419 36.6739 129.054 38.1655 129.054 39.9005C129.054 41.6051 129.419 43.1118 130.15 44.4207C130.88 45.6991 131.854 46.6884 133.072 47.3885C134.289 48.0886 135.674 48.4386 137.227 48.4386ZM156.226 61.1317C155.069 61.1317 153.943 60.9339 152.847 60.5381C151.752 60.1729 150.808 59.625 150.016 58.8944L151.888 55.607C152.497 56.1854 153.167 56.6267 153.897 56.9311C154.628 57.2355 155.404 57.3877 156.226 57.3877C157.291 57.3877 158.174 57.1138 158.874 56.5659C159.574 56.018 160.229 55.0439 160.838 53.6437L162.344 50.3106L162.801 49.7627L172.298 27.801H176.59L164.856 54.4199C164.155 56.1245 163.364 57.4638 162.481 58.4379C161.629 59.4119 160.685 60.0968 159.65 60.4925C158.616 60.9186 157.474 61.1317 156.226 61.1317ZM161.979 52.7762L150.93 27.801H155.496L164.901 49.3518L161.979 52.7762Z" fill="black"/>
<path d="M191.456 52.274C188.869 52.274 186.586 51.7413 184.607 50.6759C182.659 49.6105 181.137 48.1495 180.041 46.2927C178.976 44.4359 178.443 42.3052 178.443 39.9005C178.443 37.4958 178.961 35.3651 179.996 33.5083C181.061 31.6515 182.507 30.2057 184.333 29.1707C186.19 28.1054 188.275 27.5727 190.588 27.5727C192.932 27.5727 195.002 28.0901 196.798 29.1251C198.594 30.16 199.994 31.6211 200.999 33.5083C202.033 35.3651 202.551 37.5415 202.551 40.0375C202.551 40.2201 202.536 40.4332 202.505 40.6767C202.505 40.9202 202.49 41.1485 202.46 41.3616H181.868V38.2111H200.177L198.396 39.3069C198.426 37.7545 198.107 36.3696 197.437 35.152C196.767 33.9344 195.839 32.9908 194.652 32.3212C193.495 31.6211 192.141 31.271 190.588 31.271C189.066 31.271 187.712 31.6211 186.525 32.3212C185.338 32.9908 184.409 33.9497 183.74 35.1977C183.07 36.4152 182.735 37.8154 182.735 39.3982V40.1288C182.735 41.742 183.1 43.1879 183.831 44.4663C184.592 45.7143 185.642 46.6884 186.981 47.3885C188.321 48.0886 189.858 48.4386 191.593 48.4386C193.023 48.4386 194.317 48.1951 195.474 47.7081C196.661 47.2211 197.696 46.4905 198.579 45.5165L200.999 48.3473C199.903 49.6258 198.533 50.5998 196.889 51.2695C195.276 51.9391 193.465 52.274 191.456 52.274ZM219.413 52.274C216.826 52.274 214.543 51.7413 212.564 50.6759C210.616 49.6105 209.094 48.1495 207.998 46.2927C206.933 44.4359 206.4 42.3052 206.4 39.9005C206.4 37.4958 206.918 35.3651 207.953 33.5083C209.018 31.6515 210.464 30.2057 212.29 29.1707C214.147 28.1054 216.232 27.5727 218.545 27.5727C220.889 27.5727 222.959 28.0901 224.755 29.1251C226.551 30.16 227.951 31.6211 228.955 33.5083C229.99 35.3651 230.508 37.5415 230.508 40.0375C230.508 40.2201 230.493 40.4332 230.462 40.6767C230.462 40.9202 230.447 41.1485 230.417 41.3616H209.825V38.2111H228.134L226.353 39.3069C226.383 37.7545 226.064 36.3696 225.394 35.152C224.724 33.9344 223.796 32.9908 222.609 32.3212C221.452 31.6211 220.098 31.271 218.545 31.271C217.023 31.271 215.669 31.6211 214.482 32.3212C213.295 32.9908 212.366 33.9497 211.697 35.1977C211.027 36.4152 210.692 37.8154 210.692 39.3982V40.1288C210.692 41.742 211.057 43.1879 211.788 44.4663C212.549 45.7143 213.599 46.6884 214.938 47.3885C216.278 48.0886 217.815 48.4386 219.55 48.4386C220.98 48.4386 222.274 48.1951 223.431 47.7081C224.618 47.2211 225.653 46.4905 226.536 45.5165L228.955 48.3473C227.86 49.6258 226.49 50.5998 224.846 51.2695C223.233 51.9391 221.422 52.274 219.413 52.274ZM231.161 56.5659L246.228 13.5555H250.201L235.133 56.5659H231.161Z" fill="white"/>
</svg>
